<?xml version="1.0" encoding="utf-8"?>
<!-- Generator: Adobe Illustrator 19.0.0, SVG Export Plug-In . SVG Version: 6.00 Build 0)  -->
<svg version="1.1" id="Layer_1" xmlns="http://www.w3.org/2000/svg" xmlns:xlink="http://www.w3.org/1999/xlink" x="0px" y="0px"
	 viewBox="0 0 413 395" style="enable-background:new 0 0 413 395;" xml:space="preserve">
<style type="text/css">
	.st0{fill:#BCE6FA;}
	.st1{filter:url(#Adobe_OpacityMaskFilter);}
	.st2{opacity:0.75;mask:url(#XMLID_57_);}
	.st3{fill:#71C0EB;}
	.st4{fill:url(#XMLID_58_);}
	.st5{fill:url(#XMLID_59_);}
	.st6{fill:url(#XMLID_60_);}
	.st7{fill:url(#XMLID_61_);}
	.st8{fill:url(#XMLID_62_);}
	.st9{fill:url(#XMLID_63_);}
	.st10{fill:url(#XMLID_64_);}
	.st11{fill:url(#XMLID_65_);}
	.st12{fill:url(#XMLID_66_);}
	.st13{fill:url(#XMLID_67_);}
	.st14{fill:url(#XMLID_68_);}
	.st15{fill:url(#XMLID_69_);}
	.st16{fill:url(#XMLID_70_);}
	.st17{filter:url(#Adobe_OpacityMaskFilter_1_);}
	.st18{opacity:0.75;mask:url(#XMLID_71_);}
	.st19{fill:#00549A;}
</style>
<g id="XMLID_521_">
	<g id="XMLID_471_">
		<g id="XMLID_472_">
			<g id="XMLID_473_">
				<g id="XMLID_258_">
					<g id="XMLID_273_">
						<path id="XMLID_286_" class="st0" d="M55.6,217.1c0,0-9.9,13.8,5.2,17.9c0,0,8.4,2.3,22.5-1.3c0.7-0.2,1.4-0.3,2.2-0.4
							c4.3-0.4,18.7-0.8,20.8,8.3c0,0,0.6,20,10.3,28.8c1.2,1.1,2.3,2.2,3.1,3.6c1.3,2.2,2.7,6,3.1,11.5c0.3,4.1,2.5,8,5.9,10.3
							c3.1,2.1,7.8,3.8,14.9,3.6c18.7-0.4,15.6,11.9,15.6,11.9s-3.7,13.6-12.1,22.5c-1.5,1.6-2.5,3.7-3.1,5.8
							c-1.5,6-2.7,16.7,7.2,20.8c3.4,1.4,7.3,1.6,10.6,0.1c5.2-2.3,11.9-8.8,10.9-27.7c0-0.8,0-1.6,0.1-2.4
							c0.6-4.9,3.7-21.1,18.2-23.3c4.4-0.7,9,0.9,12,4.2c1.4,1.5,2.8,3.6,4.1,6.4c0,0,8.8,17.5,28.7,1.8c0.6-0.4,1.1-0.8,1.8-1.2
							c3.6-2,15.7-7.4,21.4,6c0,0,2.2,4.5,2.8,8.7c0.1,0.8,0.3,1.6,0.5,2.4c1.4,4.3,6.4,16.9,17,14.8c6.3-1.2,10.6-7.2,10.6-13.6
							c0-4.6-0.9-11.1-3.9-20.3c0,0-4.8-17,11.5-18.4c0,0,10.2,0.2,10.4-12.9c0,0-0.4-23.9,15.9-24.5c0,0,11.5-0.8,21,9.8
							c0.4,0.4,0.7,0.8,1.2,1.2c2.1,1.8,8.8,7.1,17.1,8.1c16.8,2,22.2-22,6.1-27.1c-4.3-1.4-10.1-2.1-17.6-1.7
							c0,0-36.2,0.6-35.6-17.8c0,0-0.9-5,9.5-14.7c0,0,11.7-8.5-1.2-20.3c0,0-19.8-15.7-1.9-26.3c0.5-0.3,1.1-0.6,1.7-0.8
							c2-0.8,6.9-2.8,12.5-3.7c0.5-0.1,1-0.1,1.5-0.1c3.4-0.2,18.5-2.3,12.4-24.6c-0.6-2.3-1.8-4.5-3.5-6.1
							c-4.1-4.1-13.1-9.6-27.5-0.1c-0.5,0.3-1,0.6-1.6,0.9c-5.4,2.6-34.6,15.9-37,1.3c0,0-1.4-6,4.2-11.6c0.8-0.8,1.5-1.6,2.1-2.5
							c3.1-4.9,11.5-20.7-3.5-27.5c-1.1-0.5-2.2-0.8-3.4-1c-4.5-0.7-14.7-0.4-25.4,12.6c-1,1.2-2.1,2.3-3.5,3.1
							c-6.4,4-24.9,12.4-27.5-19.8c0,0-1.7-36.8-29.7-45.1c-3.7-1.1-7.6-0.9-11,1c-5.5,3.1-11.8,10.8-5.2,29.2c0,0,11.8,30-0.9,35
							c-1.6,0.6-3.2,1.5-4.5,2.7c-5.2,4.6-17,16.2-22.2,29.7c0,0-8.1,18.7-19,5.3c-0.8-1-1.5-2.1-2-3.3
							c-2.1-4.9-10.2-20.4-24.7-10.7c-1.7,1.1-3.2,2.7-4.3,4.5c-2.9,5.1-6.2,16.8,12.2,30.5c3.6,2.7,5.7,7.1,5.5,11.6
							c-0.3,7.8-4.5,18.8-24,24.5c-1.4,0.4-2.9,0.6-4.3,0.5C82.4,206.9,59.5,206.6,55.6,217.1z"/>
						<path id="XMLID_285_" class="st0" d="M23.4,209.5c0,0,4.4-16.1,17.3,0c0,0,7.1,10.4-9.2,8.7C31.6,218.3,22.2,217.3,23.4,209.5
							z"/>
						<path id="XMLID_284_" class="st0" d="M114.2,282.9c0,0-16.5-11.2-25.6,6.1c0,0-4.2,12.1,11.6,10.5
							C100.2,299.5,123.3,291.9,114.2,282.9z"/>
						<path id="XMLID_283_" class="st0" d="M117.7,310.4c0,0-16,0.5-9.5,7.4c0,0,3.6,3.1,8.1-1.3
							C116.3,316.5,122.1,310.7,117.7,310.4z"/>
						<path id="XMLID_282_" class="st0" d="M184.1,345.7c0,0-11.5-2.6-6.9,11.5c0,0,5,8.2,11.6,0
							C188.8,357.2,193.6,349.8,184.1,345.7z"/>
						<path id="XMLID_281_" class="st0" d="M280.5,361.1c0,0-9.8,0.5-2.3,9.5c0,0,6,4.3,7-3C285.3,367.6,287,361.6,280.5,361.1z"/>
						
							<ellipse id="XMLID_280_" transform="matrix(0.8851 -0.4653 0.4653 0.8851 -99.7336 179.2524)" class="st0" cx="313.2" cy="291.6" rx="4.4" ry="5.1"/>
						
							<ellipse id="XMLID_279_" transform="matrix(2.987031e-002 -0.9996 0.9996 2.987031e-002 82.9488 664.487)" class="st0" cx="383.8" cy="289.5" rx="5.5" ry="6.8"/>
						
							<ellipse id="XMLID_278_" transform="matrix(2.987031e-002 -0.9996 0.9996 2.987031e-002 134.3119 537.4471)" class="st0" cx="344" cy="199.5" rx="4.3" ry="5.3"/>
						
							<ellipse id="XMLID_277_" transform="matrix(2.987025e-002 -0.9996 0.9996 2.987025e-002 157.8844 521.7787)" class="st0" cx="347.7" cy="179.6" rx="8.4" ry="9.1"/>
						
							<ellipse id="XMLID_276_" transform="matrix(0.8299 0.5579 -0.5579 0.8299 55.5853 -108.7783)" class="st0" cx="206.2" cy="36.8" rx="12.3" ry="10.3"/>
						
							<ellipse id="XMLID_275_" transform="matrix(0.8299 0.5579 -0.5579 0.8299 84.9996 -28.8972)" class="st0" cx="89.9" cy="124.9" rx="12.3" ry="10.3"/>
						<circle id="XMLID_274_" class="st0" cx="84.9" cy="157.2" r="2.7"/>
					</g>
				</g>
				<defs>
					<filter id="Adobe_OpacityMaskFilter" filterUnits="userSpaceOnUse" x="23.3" y="25.8" width="367.3" height="346.1">
						
							<feColorMatrix  type="matrix" values="-1 0 0 0 1  0 -1 0 0 1  0 0 -1 0 1  0 0 0 1 0" color-interpolation-filters="sRGB" result="source"/>
					</filter>
				</defs>
				<mask maskUnits="userSpaceOnUse" x="23.3" y="25.8" width="367.3" height="346.1" id="XMLID_57_">
					<g id="XMLID_199_" class="st1">
						
							<image style="overflow:visible;" width="372" height="351" id="XMLID_200_" xlink:href="8C480915.jpg"  transform="matrix(1 0 0 1 21 23)">
						</image>
					</g>
				</mask>
				<g id="XMLID_201_" class="st2">
					<g id="XMLID_230_">
						<path id="XMLID_243_" class="st3" d="M55.6,217.1c0,0-9.9,13.8,5.2,17.9c0,0,8.4,2.3,22.5-1.3c0.7-0.2,1.4-0.3,2.2-0.4
							c4.3-0.4,18.7-0.8,20.8,8.3c0,0,0.6,20,10.3,28.8c1.2,1.1,2.3,2.2,3.1,3.6c1.3,2.2,2.7,6,3.1,11.5c0.3,4.1,2.5,8,5.9,10.3
							c3.1,2.1,7.8,3.8,14.9,3.6c18.7-0.4,15.6,11.9,15.6,11.9s-3.7,13.6-12.1,22.5c-1.5,1.6-2.5,3.7-3.1,5.8
							c-1.5,6-2.7,16.7,7.2,20.8c3.4,1.4,7.3,1.6,10.6,0.1c5.2-2.3,11.9-8.8,10.9-27.7c0-0.8,0-1.6,0.1-2.4
							c0.6-4.9,3.7-21.1,18.2-23.3c4.4-0.7,9,0.9,12,4.2c1.4,1.5,2.8,3.6,4.1,6.4c0,0,8.8,17.5,28.7,1.8c0.6-0.4,1.1-0.8,1.8-1.2
							c3.6-2,15.7-7.4,21.4,6c0,0,2.2,4.5,2.8,8.7c0.1,0.8,0.3,1.6,0.5,2.4c1.4,4.3,6.4,16.9,17,14.8c6.3-1.2,10.6-7.2,10.6-13.6
							c0-4.6-0.9-11.1-3.9-20.3c0,0-4.8-17,11.5-18.4c0,0,10.2,0.2,10.4-12.9c0,0-0.4-23.9,15.9-24.5c0,0,11.5-0.8,21,9.8
							c0.4,0.4,0.7,0.8,1.2,1.2c2.1,1.8,8.8,7.1,17.1,8.1c16.8,2,22.2-22,6.1-27.1c-4.3-1.4-10.1-2.1-17.6-1.7
							c0,0-36.2,0.6-35.6-17.8c0,0-0.9-5,9.5-14.7c0,0,11.7-8.5-1.2-20.3c0,0-19.8-15.7-1.9-26.3c0.5-0.3,1.1-0.6,1.7-0.8
							c2-0.8,6.9-2.8,12.5-3.7c0.5-0.1,1-0.1,1.5-0.1c3.4-0.2,18.5-2.3,12.4-24.6c-0.6-2.3-1.8-4.5-3.5-6.1
							c-4.1-4.1-13.1-9.6-27.5-0.1c-0.5,0.3-1,0.6-1.6,0.9c-5.4,2.6-34.6,15.9-37,1.3c0,0-1.4-6,4.2-11.6c0.8-0.8,1.5-1.6,2.1-2.5
							c3.1-4.9,11.5-20.7-3.5-27.5c-1.1-0.5-2.2-0.8-3.4-1c-4.5-0.7-14.7-0.4-25.4,12.6c-1,1.2-2.1,2.3-3.5,3.1
							c-6.4,4-24.9,12.4-27.5-19.8c0,0-1.7-36.8-29.7-45.1c-3.7-1.1-7.6-0.9-11,1c-5.5,3.1-11.8,10.8-5.2,29.2c0,0,11.8,30-0.9,35
							c-1.6,0.6-3.2,1.5-4.5,2.7c-5.2,4.6-17,16.2-22.2,29.7c0,0-8.1,18.7-19,5.3c-0.8-1-1.5-2.1-2-3.3
							c-2.1-4.9-10.2-20.4-24.7-10.7c-1.7,1.1-3.2,2.7-4.3,4.5c-2.9,5.1-6.2,16.8,12.2,30.5c3.6,2.7,5.7,7.1,5.5,11.6
							c-0.3,7.8-4.5,18.8-24,24.5c-1.4,0.4-2.9,0.6-4.3,0.5C82.4,206.9,59.5,206.6,55.6,217.1z"/>
						<path id="XMLID_242_" class="st3" d="M23.4,209.5c0,0,4.4-16.1,17.3,0c0,0,7.1,10.4-9.2,8.7C31.6,218.3,22.2,217.3,23.4,209.5
							z"/>
						<path id="XMLID_241_" class="st3" d="M114.2,282.9c0,0-16.5-11.2-25.6,6.1c0,0-4.2,12.1,11.6,10.5
							C100.2,299.5,123.3,291.9,114.2,282.9z"/>
						<path id="XMLID_240_" class="st3" d="M117.7,310.4c0,0-16,0.5-9.5,7.4c0,0,3.6,3.1,8.1-1.3
							C116.3,316.5,122.1,310.7,117.7,310.4z"/>
						<path id="XMLID_239_" class="st3" d="M184.1,345.7c0,0-11.5-2.6-6.9,11.5c0,0,5,8.2,11.6,0
							C188.8,357.2,193.6,349.8,184.1,345.7z"/>
						<path id="XMLID_238_" class="st3" d="M280.5,361.1c0,0-9.8,0.5-2.3,9.5c0,0,6,4.3,7-3C285.3,367.6,287,361.6,280.5,361.1z"/>
						
							<ellipse id="XMLID_237_" transform="matrix(0.8851 -0.4653 0.4653 0.8851 -99.7336 179.2524)" class="st3" cx="313.2" cy="291.6" rx="4.4" ry="5.1"/>
						
							<ellipse id="XMLID_236_" transform="matrix(2.987031e-002 -0.9996 0.9996 2.987031e-002 82.9488 664.487)" class="st3" cx="383.8" cy="289.5" rx="5.5" ry="6.8"/>
						
							<ellipse id="XMLID_235_" transform="matrix(2.987031e-002 -0.9996 0.9996 2.987031e-002 134.3119 537.4471)" class="st3" cx="344" cy="199.5" rx="4.3" ry="5.3"/>
						
							<ellipse id="XMLID_234_" transform="matrix(2.987025e-002 -0.9996 0.9996 2.987025e-002 157.8844 521.7787)" class="st3" cx="347.7" cy="179.6" rx="8.4" ry="9.1"/>
						
							<ellipse id="XMLID_233_" transform="matrix(0.8299 0.5579 -0.5579 0.8299 55.5853 -108.7783)" class="st3" cx="206.2" cy="36.8" rx="12.3" ry="10.3"/>
						
							<ellipse id="XMLID_232_" transform="matrix(0.8299 0.5579 -0.5579 0.8299 84.9996 -28.8972)" class="st3" cx="89.9" cy="124.9" rx="12.3" ry="10.3"/>
						<circle id="XMLID_231_" class="st3" cx="84.9" cy="157.2" r="2.7"/>
					</g>
				</g>
			</g>
			<g id="XMLID_518_">
				<g id="XMLID_197_">
					<g id="XMLID_212_">
						<radialGradient id="XMLID_58_" cx="209.0696" cy="207.8263" r="188.3797" gradientUnits="userSpaceOnUse">
							<stop  offset="0.8209" style="stop-color:#FFFFFF"/>
							<stop  offset="0.9624" style="stop-color:#C6DAF0"/>
							<stop  offset="1" style="stop-color:#6AAADC"/>
						</radialGradient>
						<path id="XMLID_225_" class="st4" d="M51.4,216.1c0,0-9.9,13.8,5.2,17.9c0,0,8.4,2.3,22.5-1.3c0.7-0.2,1.4-0.3,2.2-0.4
							c4.3-0.4,18.7-0.8,20.8,8.3c0,0,0.6,20,10.3,28.8c1.2,1.1,2.3,2.2,3.1,3.6c1.3,2.2,2.7,6,3.1,11.5c0.3,4.1,2.5,8,5.9,10.3
							c3.1,2.1,7.8,3.8,14.9,3.6c18.7-0.4,15.6,11.9,15.6,11.9s-3.7,13.6-12.1,22.5c-1.5,1.6-2.5,3.7-3.1,5.8
							c-1.5,6-2.7,16.7,7.2,20.8c3.4,1.4,7.3,1.6,10.6,0.1c5.2-2.3,11.9-8.8,10.9-27.7c0-0.8,0-1.6,0.1-2.4
							c0.6-4.9,3.7-21.1,18.2-23.3c4.4-0.7,9,0.9,12,4.2c1.4,1.5,2.8,3.6,4.1,6.4c0,0,8.8,17.5,28.7,1.8c0.6-0.4,1.1-0.8,1.8-1.2
							c3.6-2,15.7-7.4,21.4,6c0,0,2.2,4.5,2.8,8.7c0.1,0.8,0.3,1.6,0.5,2.4c1.4,4.3,6.4,16.9,17,14.8c6.3-1.2,10.6-7.2,10.6-13.6
							c0-4.6-0.9-11.1-3.9-20.3c0,0-4.8-17,11.5-18.4c0,0,10.2,0.2,10.4-12.9c0,0-0.4-23.9,15.9-24.5c0,0,11.5-0.8,21,9.8
							c0.4,0.4,0.7,0.8,1.2,1.2c2.1,1.8,8.8,7.1,17.1,8.1c16.8,2,22.2-22,6.1-27.1c-4.3-1.4-10.1-2.1-17.6-1.7
							c0,0-36.2,0.6-35.6-17.8c0,0-0.9-5,9.5-14.7c0,0,11.7-8.5-1.2-20.3c0,0-19.8-15.7-1.9-26.3c0.5-0.3,1.1-0.6,1.7-0.8
							c2-0.8,6.9-2.8,12.5-3.7c0.5-0.1,1-0.1,1.5-0.1c3.4-0.2,18.5-2.3,12.4-24.6c-0.6-2.3-1.8-4.5-3.5-6.1
							c-4.1-4.1-13.1-9.6-27.5-0.1c-0.5,0.3-1,0.6-1.6,0.9c-5.4,2.6-34.6,15.9-37,1.3c0,0-1.4-6,4.2-11.6c0.8-0.8,1.5-1.6,2.1-2.5
							c3.1-4.9,11.5-20.7-3.5-27.5c-1.1-0.5-2.2-0.8-3.4-1c-4.5-0.7-14.7-0.4-25.4,12.6c-1,1.2-2.1,2.3-3.5,3.1
							c-6.4,4-24.9,12.4-27.5-19.8c0,0-1.7-36.8-29.7-45.1c-3.7-1.1-7.6-0.9-11,1c-5.5,3.1-11.8,10.8-5.2,29.2c0,0,11.8,30-0.9,35
							c-1.6,0.6-3.2,1.5-4.5,2.7c-5.2,4.6-17,16.2-22.2,29.7c0,0-8.1,18.7-19,5.3c-0.8-1-1.5-2.1-2-3.3
							c-2.1-4.9-10.2-20.4-24.7-10.7c-1.7,1.1-3.2,2.7-4.3,4.5c-2.9,5.1-6.2,16.8,12.2,30.5c3.6,2.7,5.7,7.1,5.5,11.6
							c-0.3,7.8-4.5,18.8-24,24.5c-1.4,0.4-2.9,0.6-4.3,0.5C78.2,205.9,55.2,205.7,51.4,216.1z"/>
						<radialGradient id="XMLID_59_" cx="213.591" cy="211.0558" r="268.2223" gradientUnits="userSpaceOnUse">
							<stop  offset="0.8209" style="stop-color:#FFFFFF"/>
							<stop  offset="0.9624" style="stop-color:#C6DAF0"/>
							<stop  offset="1" style="stop-color:#6AAADC"/>
						</radialGradient>
						<path id="XMLID_224_" class="st5" d="M19.2,208.6c0,0,4.4-16.1,17.3,0c0,0,7.1,10.4-9.2,8.7C27.4,217.3,17.9,216.3,19.2,208.6
							z"/>
						<radialGradient id="XMLID_60_" cx="213.591" cy="211.0558" r="268.2223" gradientUnits="userSpaceOnUse">
							<stop  offset="0.8209" style="stop-color:#FFFFFF"/>
							<stop  offset="0.9624" style="stop-color:#C6DAF0"/>
							<stop  offset="1" style="stop-color:#6AAADC"/>
						</radialGradient>
						<path id="XMLID_223_" class="st6" d="M109.9,281.9c0,0-16.5-11.2-25.6,6.1c0,0-4.2,12.1,11.6,10.5
							C95.9,298.6,119.1,290.9,109.9,281.9z"/>
						<radialGradient id="XMLID_61_" cx="213.591" cy="211.0558" r="268.2223" gradientUnits="userSpaceOnUse">
							<stop  offset="0.8209" style="stop-color:#FFFFFF"/>
							<stop  offset="0.9624" style="stop-color:#C6DAF0"/>
							<stop  offset="1" style="stop-color:#6AAADC"/>
						</radialGradient>
						<path id="XMLID_222_" class="st7" d="M113.5,309.4c0,0-16,0.5-9.5,7.4c0,0,3.6,3.1,8.1-1.3
							C112.1,315.5,117.8,309.7,113.5,309.4z"/>
						<radialGradient id="XMLID_62_" cx="213.591" cy="211.0558" r="268.2223" gradientUnits="userSpaceOnUse">
							<stop  offset="0.8209" style="stop-color:#FFFFFF"/>
							<stop  offset="0.9624" style="stop-color:#C6DAF0"/>
							<stop  offset="1" style="stop-color:#6AAADC"/>
						</radialGradient>
						<path id="XMLID_221_" class="st8" d="M179.9,344.8c0,0-11.5-2.6-6.9,11.5c0,0,5,8.2,11.6,0
							C184.5,356.2,189.4,348.8,179.9,344.8z"/>
						<radialGradient id="XMLID_63_" cx="213.591" cy="211.0558" r="268.2223" gradientUnits="userSpaceOnUse">
							<stop  offset="0.8209" style="stop-color:#FFFFFF"/>
							<stop  offset="0.9624" style="stop-color:#C6DAF0"/>
							<stop  offset="1" style="stop-color:#6AAADC"/>
						</radialGradient>
						<path id="XMLID_220_" class="st9" d="M276.3,360.1c0,0-9.8,0.5-2.3,9.5c0,0,6,4.3,7-3C281,366.6,282.7,360.6,276.3,360.1z"/>
						<radialGradient id="XMLID_64_" cx="213.591" cy="211.0558" r="268.2223" gradientUnits="userSpaceOnUse">
							<stop  offset="0.8209" style="stop-color:#FFFFFF"/>
							<stop  offset="0.9624" style="stop-color:#C6DAF0"/>
							<stop  offset="1" style="stop-color:#6AAADC"/>
						</radialGradient>
						<path id="XMLID_219_" class="st10" d="M312.9,288.6c1.3,2.5,0.6,5.4-1.5,6.6c-2.2,1.1-5,0-6.3-2.4c-1.3-2.5-0.6-5.4,1.5-6.6
							C308.7,285,311.6,286.1,312.9,288.6z"/>
						<radialGradient id="XMLID_65_" cx="213.591" cy="211.0558" r="268.2223" gradientUnits="userSpaceOnUse">
							<stop  offset="0.8209" style="stop-color:#FFFFFF"/>
							<stop  offset="0.9624" style="stop-color:#C6DAF0"/>
							<stop  offset="1" style="stop-color:#6AAADC"/>
						</radialGradient>
						<path id="XMLID_218_" class="st11" d="M379.7,283c3.8,0.1,6.8,2.7,6.7,5.7c-0.1,3-3.2,5.4-7,5.3s-6.8-2.7-6.7-5.7
							S375.9,282.9,379.7,283z"/>
						<radialGradient id="XMLID_66_" cx="213.591" cy="211.0558" r="268.2223" gradientUnits="userSpaceOnUse">
							<stop  offset="0.8209" style="stop-color:#FFFFFF"/>
							<stop  offset="0.9624" style="stop-color:#C6DAF0"/>
							<stop  offset="1" style="stop-color:#6AAADC"/>
						</radialGradient>
						<path id="XMLID_217_" class="st12" d="M339.9,194.3c2.9,0.1,5.3,2.1,5.2,4.4s-2.5,4.2-5.4,4.1c-2.9-0.1-5.3-2.1-5.2-4.4
							S337,194.2,339.9,194.3z"/>
						<radialGradient id="XMLID_67_" cx="213.591" cy="211.0558" r="268.2223" gradientUnits="userSpaceOnUse">
							<stop  offset="0.8209" style="stop-color:#FFFFFF"/>
							<stop  offset="0.9624" style="stop-color:#C6DAF0"/>
							<stop  offset="1" style="stop-color:#6AAADC"/>
						</radialGradient>
						<path id="XMLID_216_" class="st13" d="M343.7,170.2c5,0.1,8.9,4,8.8,8.7c-0.1,4.6-4.3,8.3-9.3,8.1c-5-0.1-8.9-4-8.8-8.7
							C334.6,173.7,338.7,170,343.7,170.2z"/>
						<radialGradient id="XMLID_68_" cx="213.591" cy="211.0558" r="268.2223" gradientUnits="userSpaceOnUse">
							<stop  offset="0.8209" style="stop-color:#FFFFFF"/>
							<stop  offset="0.9624" style="stop-color:#C6DAF0"/>
							<stop  offset="1" style="stop-color:#6AAADC"/>
						</radialGradient>
						<path id="XMLID_215_" class="st14" d="M212.2,42.7c-3.2,4.7-10.3,5.5-16,1.7s-7.6-10.7-4.5-15.5s10.3-5.5,16-1.7
							S215.3,37.9,212.2,42.7z"/>
						<radialGradient id="XMLID_69_" cx="213.591" cy="211.0558" r="268.2223" gradientUnits="userSpaceOnUse">
							<stop  offset="0.8209" style="stop-color:#FFFFFF"/>
							<stop  offset="0.9624" style="stop-color:#C6DAF0"/>
							<stop  offset="1" style="stop-color:#6AAADC"/>
						</radialGradient>
						<path id="XMLID_214_" class="st15" d="M95.9,130.8c-3.2,4.7-10.3,5.5-16,1.7s-7.6-10.7-4.5-15.5s10.3-5.5,16-1.7
							S99,126.1,95.9,130.8z"/>
						<radialGradient id="XMLID_70_" cx="213.591" cy="211.0558" r="268.2223" gradientUnits="userSpaceOnUse">
							<stop  offset="0.8209" style="stop-color:#FFFFFF"/>
							<stop  offset="0.9624" style="stop-color:#C6DAF0"/>
							<stop  offset="1" style="stop-color:#6AAADC"/>
						</radialGradient>
						<circle id="XMLID_213_" class="st16" cx="80.6" cy="156.2" r="2.7"/>
					</g>
				</g>
				<defs>
					<filter id="Adobe_OpacityMaskFilter_1_" filterUnits="userSpaceOnUse" x="19.1" y="24.8" width="367.3" height="346.1">
						
							<feColorMatrix  type="matrix" values="-1 0 0 0 1  0 -1 0 0 1  0 0 -1 0 1  0 0 0 1 0" color-interpolation-filters="sRGB" result="source"/>
					</filter>
				</defs>
				<mask maskUnits="userSpaceOnUse" x="19.1" y="24.8" width="367.3" height="346.1" id="XMLID_71_">
					<g id="XMLID_152_" class="st17">
						
							<image style="overflow:visible;" width="372" height="351" id="XMLID_153_" xlink:href="8C48091B.jpg"  transform="matrix(1 0 0 1 17 22)">
						</image>
					</g>
				</mask>
				<g id="XMLID_154_" class="st18">
					<g id="XMLID_169_">
						<path id="XMLID_182_" class="st3" d="M51.4,216.1c0,0-9.9,13.8,5.2,17.9c0,0,8.4,2.3,22.5-1.3c0.7-0.2,1.4-0.3,2.2-0.4
							c4.3-0.4,18.7-0.8,20.8,8.3c0,0,0.6,20,10.3,28.8c1.2,1.1,2.3,2.2,3.1,3.6c1.3,2.2,2.7,6,3.1,11.5c0.3,4.1,2.5,8,5.9,10.3
							c3.1,2.1,7.8,3.8,14.9,3.6c18.7-0.4,15.6,11.9,15.6,11.9s-3.7,13.6-12.1,22.5c-1.5,1.6-2.5,3.7-3.1,5.8
							c-1.5,6-2.7,16.7,7.2,20.8c3.4,1.4,7.3,1.6,10.6,0.1c5.2-2.3,11.9-8.8,10.9-27.7c0-0.8,0-1.6,0.1-2.4
							c0.6-4.9,3.7-21.1,18.2-23.3c4.4-0.7,9,0.9,12,4.2c1.4,1.5,2.8,3.6,4.1,6.4c0,0,8.8,17.5,28.7,1.8c0.6-0.4,1.1-0.8,1.8-1.2
							c3.6-2,15.7-7.4,21.4,6c0,0,2.2,4.5,2.8,8.7c0.1,0.8,0.3,1.6,0.5,2.4c1.4,4.3,6.4,16.9,17,14.8c6.3-1.2,10.6-7.2,10.6-13.6
							c0-4.6-0.9-11.1-3.9-20.3c0,0-4.8-17,11.5-18.4c0,0,10.2,0.2,10.4-12.9c0,0-0.4-23.9,15.9-24.5c0,0,11.5-0.8,21,9.8
							c0.4,0.4,0.7,0.8,1.2,1.2c2.1,1.8,8.8,7.1,17.1,8.1c16.8,2,22.2-22,6.1-27.1c-4.3-1.4-10.1-2.1-17.6-1.7
							c0,0-36.2,0.6-35.6-17.8c0,0-0.9-5,9.5-14.7c0,0,11.7-8.5-1.2-20.3c0,0-19.8-15.7-1.9-26.3c0.5-0.3,1.1-0.6,1.7-0.8
							c2-0.8,6.9-2.8,12.5-3.7c0.5-0.1,1-0.1,1.5-0.1c3.4-0.2,18.5-2.3,12.4-24.6c-0.6-2.3-1.8-4.5-3.5-6.1
							c-4.1-4.1-13.1-9.6-27.5-0.1c-0.5,0.3-1,0.6-1.6,0.9c-5.4,2.6-34.6,15.9-37,1.3c0,0-1.4-6,4.2-11.6c0.8-0.8,1.5-1.6,2.1-2.5
							c3.1-4.9,11.5-20.7-3.5-27.5c-1.1-0.5-2.2-0.8-3.4-1c-4.5-0.7-14.7-0.4-25.4,12.6c-1,1.2-2.1,2.3-3.5,3.1
							c-6.4,4-24.9,12.4-27.5-19.8c0,0-1.7-36.8-29.7-45.1c-3.7-1.1-7.6-0.9-11,1c-5.5,3.1-11.8,10.8-5.2,29.2c0,0,11.8,30-0.9,35
							c-1.6,0.6-3.2,1.5-4.5,2.7c-5.2,4.6-17,16.2-22.2,29.7c0,0-8.1,18.7-19,5.3c-0.8-1-1.5-2.1-2-3.3
							c-2.1-4.9-10.2-20.4-24.7-10.7c-1.7,1.1-3.2,2.7-4.3,4.5c-2.9,5.1-6.2,16.8,12.2,30.5c3.6,2.7,5.7,7.1,5.5,11.6
							c-0.3,7.8-4.5,18.8-24,24.5c-1.4,0.4-2.9,0.6-4.3,0.5C78.2,205.9,55.2,205.7,51.4,216.1z"/>
						<path id="XMLID_181_" class="st3" d="M19.2,208.6c0,0,4.4-16.1,17.3,0c0,0,7.1,10.4-9.2,8.7C27.4,217.3,17.9,216.3,19.2,208.6
							z"/>
						<path id="XMLID_180_" class="st3" d="M109.9,281.9c0,0-16.5-11.2-25.6,6.1c0,0-4.2,12.1,11.6,10.5
							C95.9,298.6,119.1,290.9,109.9,281.9z"/>
						<path id="XMLID_179_" class="st3" d="M113.5,309.4c0,0-16,0.5-9.5,7.4c0,0,3.6,3.1,8.1-1.3
							C112.1,315.5,117.8,309.7,113.5,309.4z"/>
						<path id="XMLID_178_" class="st3" d="M179.9,344.8c0,0-11.5-2.6-6.9,11.5c0,0,5,8.2,11.6,0
							C184.5,356.2,189.4,348.8,179.9,344.8z"/>
						<path id="XMLID_177_" class="st3" d="M276.3,360.1c0,0-9.8,0.5-2.3,9.5c0,0,6,4.3,7-3C281,366.6,282.7,360.6,276.3,360.1z"/>
						
							<ellipse id="XMLID_176_" transform="matrix(0.8851 -0.4653 0.4653 0.8851 -99.7698 177.1574)" class="st3" cx="309" cy="290.7" rx="4.4" ry="5.1"/>
						
							<ellipse id="XMLID_175_" transform="matrix(2.987031e-002 -0.9996 0.9996 2.987031e-002 79.7881 659.2821)" class="st3" cx="379.5" cy="288.5" rx="5.5" ry="6.8"/>
						
							<ellipse id="XMLID_174_" transform="matrix(2.987031e-002 -0.9996 0.9996 2.987031e-002 131.1512 532.2422)" class="st3" cx="339.8" cy="198.6" rx="4.3" ry="5.3"/>
						
							<ellipse id="XMLID_173_" transform="matrix(2.987025e-002 -0.9996 0.9996 2.987025e-002 154.7238 516.5739)" class="st3" cx="343.5" cy="178.6" rx="8.4" ry="9.1"/>
						
							<ellipse id="XMLID_172_" transform="matrix(0.8299 0.5579 -0.5579 0.8299 54.3168 -106.5664)" class="st3" cx="201.9" cy="35.8" rx="12.3" ry="10.3"/>
						
							<ellipse id="XMLID_171_" transform="matrix(0.8299 0.5579 -0.5579 0.8299 83.7312 -26.6853)" class="st3" cx="85.6" cy="124" rx="12.3" ry="10.3"/>
						<circle id="XMLID_170_" class="st3" cx="80.6" cy="156.2" r="2.7"/>
					</g>
				</g>
			</g>
			<g id="XMLID_15_">
				<path id="XMLID_16_" class="st19" d="M225.9,223.6c-2.4-1-4.1-2.3-5-3.6c-0.9-1.4-1.4-2.6-1.7-3.8c-0.2-1.4-0.1-2.8,0.5-4.3
					c0.7-1.9,2.4-3.3,5.1-4.2c2.7-0.9,5.8-1.5,9.2-1.8c3.5-0.3,7.1-0.4,10.8-0.2c3.7,0.2,7,0.5,9.7,0.9c1.8,0.3,3.3,0.8,4.6,1.3
					c1.3,0.6,2.3,1.1,3.2,1.7c0.9,0.6,1.7,1.4,2.4,2.2c0.9,1.3,1.7,2.9,2.4,4.9c0.6,2,1.1,4.2,1.5,6.5c0.4,2.4,0.6,4.8,0.8,7.4
					c0.2,2.6,0.2,5.1,0.2,7.6c0,5.9-0.3,12.2-0.9,18.9c-0.3,4.3-1.3,7.6-3.1,9.9c-1.7,2.3-3.6,4-5.6,5c-2.3,1.3-4.9,1.9-7.7,2
					c-2.3,0-4.6-0.2-6.8-0.7c-2.2-0.5-4.2-1.3-6-2.5c-1.8-1.2-3.2-2.8-4.3-4.9c-1.1-2-1.6-4.6-1.6-7.6c-1.2,1.5-2.8,2.9-5,4.4
					c-2.2,1.5-4.8,2.7-7.8,3.7c-3,1-6.6,1.6-10.6,1.9c-4,0.3-8.5,0-13.4-0.9c-7.6-1.5-14.2-4.5-20-9c-2.5-1.9-5-4.2-7.3-6.9
					c-2.4-2.7-4.5-6-6.3-9.8c-1.8-3.8-3.3-8.2-4.5-13.2c-1.2-4.9-1.7-10.6-1.7-16.9c0.1-8,1.5-15.6,4.3-22.9c1.2-3,2.7-6.2,4.6-9.4
					c1.9-3.2,4.3-6.3,7.1-9.2c2.8-2.9,6.2-5.6,10.2-8.1c3.9-2.5,8.5-4.6,13.8-6.4c6.3-1.6,12.6-2.3,18.9-2c2.6,0.1,5.4,0.4,8.4,0.9
					c3,0.5,6,1.3,9,2.4c3,1.1,6,2.6,8.9,4.4c2.9,1.8,5.7,4.1,8.4,6.9c1.7,2,3,4.3,3.9,6.8c0.8,2.1,1.3,4.6,1.3,7.6
					c0.1,2.9-0.7,6.1-2.3,9.6c-1.3,2.4-3.1,4.3-5.5,5.5c-2.1,1.2-4.9,1.8-8.4,2c-3.5,0.2-8.1-0.7-13.6-2.8c-3.9-1-7.3-1.4-10.2-0.9
					c-2.6,0.4-5,1.6-7.1,3.5c-2.1,1.9-3.2,5.4-3.3,10.5c0.2,3.8,1,6.9,2.5,9.5c0.6,1.1,1.4,2,2.4,2.9c1,0.9,2.2,1.6,3.7,2
					c1.5,0.5,3.2,0.7,5.1,0.6C221,225.1,223.3,224.6,225.9,223.6z"/>
			</g>
		</g>
	</g>
</g>
</svg>
